REM DIRINDEX 1\2,1\3,1\4,1\5\6,1\5\7,1\8
REM DIRNAME folder01,folder02,folder03,folder04,folder05,folder06,folder07,folder08
TITLE ""
FILE "114 Åy114ÅzUnit6 (DATA FILE_í∑ï∂ñ‚ëËÇ…èoåªÇ∑ÇÈêÍñÂópåÍ6).mp3" MP3
  TRACK 01 AUDIO
    TITLE "0:"
    INDEX 01 00:00:00
  TRACK 02 AUDIO
    TITLE "8:cjc115_4414"
    INDEX 01 00:00:07
  TRACK 03 AUDIO
    TITLE "0:"
    INDEX 01 00:01:40
  TRACK 04 AUDIO
    TITLE "6:cjc115_4415"
    INDEX 01 00:02:12
  TRACK 05 AUDIO
    TITLE "0:"
    INDEX 01 00:03:29
  TRACK 06 AUDIO
    TITLE "7:cjc115_4416"
    INDEX 01 00:03:37
  TRACK 07 AUDIO
    TITLE "0:"
    INDEX 01 00:04:44
  TRACK 08 AUDIO
    TITLE "6:cjc115_4417"
    INDEX 01 00:05:56
  TRACK 09 AUDIO
    TITLE "0:"
    INDEX 01 00:07:07
  TRACK 10 AUDIO
    TITLE "7:cjc115_4418"
    INDEX 01 00:07:09
  TRACK 11 AUDIO
    TITLE "0:"
    INDEX 01 00:10:18
  TRACK 12 AUDIO
    TITLE "6:cjc115_4419"
    INDEX 01 00:11:27
  TRACK 13 AUDIO
    TITLE "0:"
    INDEX 01 00:12:54
  TRACK 14 AUDIO
    TITLE "7:cjc115_4420"
    INDEX 01 00:12:63
  TRACK 15 AUDIO
    TITLE "0:"
    INDEX 01 00:13:69
  TRACK 16 AUDIO
    TITLE "6:cjc115_4421"
    INDEX 01 00:15:03
  TRACK 17 AUDIO
    TITLE "0:"
    INDEX 01 00:16:22
  TRACK 18 AUDIO
    TITLE "7:cjc115_4422"
    INDEX 01 00:16:26
  TRACK 19 AUDIO
    TITLE "0:"
    INDEX 01 00:17:61
  TRACK 20 AUDIO
    TITLE "6:cjc115_4423"
    INDEX 01 00:18:72
  TRACK 21 AUDIO
    TITLE "0:"
    INDEX 01 00:20:16
  TRACK 22 AUDIO
    TITLE "7:cjc115_4424"
    INDEX 01 00:20:24
  TRACK 23 AUDIO
    TITLE "0:"
    INDEX 01 00:22:56
  TRACK 24 AUDIO
    TITLE "6:cjc115_4425"
    INDEX 01 00:23:65
  TRACK 25 AUDIO
    TITLE "0:"
    INDEX 01 00:25:05
  TRACK 26 AUDIO
    TITLE "7:cjc115_4426"
    INDEX 01 00:25:11
  TRACK 27 AUDIO
    TITLE "0:"
    INDEX 01 00:26:30
  TRACK 28 AUDIO
    TITLE "6:cjc115_4427"
    INDEX 01 00:27:39
  TRACK 29 AUDIO
    TITLE "0:"
    INDEX 01 00:28:57
  TRACK 30 AUDIO
    TITLE "7:cjc115_4428"
    INDEX 01 00:28:66
  TRACK 31 AUDIO
    TITLE "0:"
    INDEX 01 00:30:28
  TRACK 32 AUDIO
    TITLE "6:cjc115_4429"
    INDEX 01 00:31:37
  TRACK 33 AUDIO
    TITLE "0:"
    INDEX 01 00:32:68
  TRACK 34 AUDIO
    TITLE "7:cjc115_4430"
    INDEX 01 00:33:01
  TRACK 35 AUDIO
    TITLE "0:"
    INDEX 01 00:35:29
  TRACK 36 AUDIO
    TITLE "6:cjc115_4431"
    INDEX 01 00:36:42
  TRACK 37 AUDIO
    TITLE "0:"
    INDEX 01 00:37:48
  TRACK 38 AUDIO
    TITLE "7:cjc115_4432"
    INDEX 01 00:37:56
  TRACK 39 AUDIO
    TITLE "0:"
    INDEX 01 00:39:72
  TRACK 40 AUDIO
    TITLE "6:cjc115_4433"
    INDEX 01 00:41:06
  TRACK 41 AUDIO
    TITLE "0:"
    INDEX 01 00:42:33
  TRACK 42 AUDIO
    TITLE "7:cjc115_4434"
    INDEX 01 00:42:41
  TRACK 43 AUDIO
    TITLE "0:"
    INDEX 01 00:45:28
  TRACK 44 AUDIO
    TITLE "6:cjc115_4435"
    INDEX 01 00:46:37
  TRACK 45 AUDIO
    TITLE "0:"
    INDEX 01 00:47:56
  TRACK 46 AUDIO
    TITLE "7:cjc115_4436"
    INDEX 01 00:47:74
  TRACK 47 AUDIO
    TITLE "0:"
    INDEX 01 00:50:17
  TRACK 48 AUDIO
    TITLE "6:cjc115_4437"
    INDEX 01 00:51:22
  TRACK 49 AUDIO
    TITLE "0:"
    INDEX 01 00:52:69
  TRACK 50 AUDIO
    TITLE "7:cjc115_4438"
    INDEX 01 00:53:04
  TRACK 51 AUDIO
    TITLE "0:"
    INDEX 01 00:54:42
  TRACK 52 AUDIO
    TITLE "6:cjc115_4439"
    INDEX 01 00:55:50
  TRACK 53 AUDIO
    TITLE "0:"
    INDEX 01 00:56:74
  TRACK 54 AUDIO
    TITLE "7:cjc115_4440"
    INDEX 01 00:57:05
  TRACK 55 AUDIO
    TITLE "0:"
    INDEX 01 00:58:56
  TRACK 56 AUDIO
    TITLE "6:cjc115_4441"
    INDEX 01 00:59:61
  TRACK 57 AUDIO
    TITLE "0:"
    INDEX 01 01:01:19
  TRACK 58 AUDIO
    TITLE "7:cjc115_4442"
    INDEX 01 01:01:25
  TRACK 59 AUDIO
    TITLE "0:"
    INDEX 01 01:02:67
  TRACK 60 AUDIO
    TITLE "6:cjc115_4443"
    INDEX 01 01:03:69
  TRACK 61 AUDIO
    TITLE "0:"
    INDEX 01 01:05:32
  TRACK 62 AUDIO
    TITLE "7:cjc115_4444"
    INDEX 01 01:05:42
  TRACK 63 AUDIO
    TITLE "0:"
    INDEX 01 01:07:00
  TRACK 64 AUDIO
    TITLE "6:cjc115_4445"
    INDEX 01 01:08:07
  TRACK 65 AUDIO
    TITLE "0:"
    INDEX 01 01:09:57
  TRACK 66 AUDIO
    TITLE "7:cjc115_4446"
    INDEX 01 01:09:67
  TRACK 67 AUDIO
    TITLE "0:"
    INDEX 01 01:11:41
  TRACK 68 AUDIO
    TITLE "6:cjc115_4447"
    INDEX 01 01:12:52
  TRACK 69 AUDIO
    TITLE "0:"
    INDEX 01 01:14:08
  TRACK 70 AUDIO
    TITLE "7:cjc115_4448"
    INDEX 01 01:14:19
  TRACK 71 AUDIO
    TITLE "0:"
    INDEX 01 01:17:39
  TRACK 72 AUDIO
    TITLE "6:cjc115_4449"
    INDEX 01 01:18:47
  TRACK 73 AUDIO
    TITLE "0:"
    INDEX 01 01:20:12
  TRACK 74 AUDIO
    TITLE "7:cjc115_4450"
    INDEX 01 01:20:20
  TRACK 75 AUDIO
    TITLE "0:"
    INDEX 01 01:23:46
  TRACK 76 AUDIO
    TITLE "6:cjc115_4451"
    INDEX 01 01:24:55
  TRACK 77 AUDIO
    TITLE "0:"
    INDEX 01 01:25:70
  TRACK 78 AUDIO
    TITLE "7:cjc115_4452"
    INDEX 01 01:26:05
  TRACK 79 AUDIO
    TITLE "0:"
    INDEX 01 01:27:69
  TRACK 80 AUDIO
    TITLE "6:cjc115_4453"
    INDEX 01 01:29:01
  TRACK 81 AUDIO
    TITLE "0:"
    INDEX 01 01:30:15
  TRACK 82 AUDIO
    TITLE "7:cjc115_4454"
    INDEX 01 01:30:24
  TRACK 83 AUDIO
    TITLE "0:"
    INDEX 01 01:31:26
  TRACK 84 AUDIO
    TITLE "6:cjc115_4455"
    INDEX 01 01:32:33
  TRACK 85 AUDIO
    TITLE "0:"
    INDEX 01 01:33:56
  TRACK 86 AUDIO
    TITLE "7:cjc115_4456"
    INDEX 01 01:33:64
  TRACK 87 AUDIO
    TITLE "0:"
    INDEX 01 01:36:72
  TRACK 88 AUDIO
    TITLE "6:cjc115_4457"
    INDEX 01 01:38:04
  TRACK 89 AUDIO
    TITLE "0:"
    INDEX 01 01:39:37
  TRACK 90 AUDIO
    TITLE "7:cjc115_4458"
    INDEX 01 01:39:45
  TRACK 91 AUDIO
    TITLE "0:"
    INDEX 01 01:40:44
  TRACK 92 AUDIO
    TITLE "6:cjc115_4459"
    INDEX 01 01:41:54
  TRACK 93 AUDIO
    TITLE "0:"
    INDEX 01 01:43:07
  TRACK 94 AUDIO
    TITLE "7:cjc115_4460"
    INDEX 01 01:43:15
  TRACK 95 AUDIO
    TITLE "0:"
    INDEX 01 01:45:32
  TRACK 96 AUDIO
    TITLE "6:cjc115_4461"
    INDEX 01 01:46:35
  TRACK 97 AUDIO
    TITLE "0:"
    INDEX 01 01:47:64
  TRACK 98 AUDIO
    TITLE "7:cjc115_4462"
    INDEX 01 01:47:66
  TRACK 99 AUDIO
    TITLE "0:"
    INDEX 01 01:49:16
  TRACK 100 AUDIO
    TITLE "6:cjc115_4463"
    INDEX 01 01:50:23
  TRACK 101 AUDIO
    TITLE "0:"
    INDEX 01 01:51:44
  TRACK 102 AUDIO
    TITLE "7:cjc115_4464"
    INDEX 01 01:51:48
  TRACK 103 AUDIO
    TITLE "0:"
    INDEX 01 01:53:06
  TRACK 104 AUDIO
    TITLE "6:cjc115_4465"
    INDEX 01 01:54:17
  TRACK 105 AUDIO
    TITLE "0:"
    INDEX 01 01:55:48
  TRACK 106 AUDIO
    TITLE "7:cjc115_4466"
    INDEX 01 01:55:56
  TRACK 107 AUDIO
    TITLE "0:"
    INDEX 01 01:58:62
  TRACK 108 AUDIO
    TITLE "6:cjc115_4467"
    INDEX 01 01:59:69
  TRACK 109 AUDIO
    TITLE "0:"
    INDEX 01 02:01:21
  TRACK 110 AUDIO
    TITLE "7:cjc115_4468"
    INDEX 01 02:01:29
  TRACK 111 AUDIO
    TITLE "0:"
    INDEX 01 02:03:63
  TRACK 112 AUDIO
    TITLE "6:cjc115_4469"
    INDEX 01 02:04:72
  TRACK 113 AUDIO
    TITLE "0:"
    INDEX 01 02:06:10
  TRACK 114 AUDIO
    TITLE "7:cjc115_4470"
    INDEX 01 02:06:14
  TRACK 115 AUDIO
    TITLE "0:"
    INDEX 01 02:07:67
  TRACK 116 AUDIO
    TITLE "6:cjc115_4471"
    INDEX 01 02:09:05
  TRACK 117 AUDIO
    TITLE "0:"
    INDEX 01 02:10:14
  TRACK 118 AUDIO
    TITLE "7:cjc115_4472"
    INDEX 01 02:10:24
  TRACK 119 AUDIO
    TITLE "0:"
    INDEX 01 02:11:55
  TRACK 120 AUDIO
    TITLE "6:cjc115_4473"
    INDEX 01 02:12:64
  TRACK 121 AUDIO
    TITLE "0:"
    INDEX 01 02:14:00
  TRACK 122 AUDIO
    TITLE "7:cjc115_4474"
    INDEX 01 02:14:08
  TRACK 123 AUDIO
    TITLE "0:"
    INDEX 01 02:16:34
  TRACK 124 AUDIO
    TITLE "6:cjc115_4475"
    INDEX 01 02:17:42
  TRACK 125 AUDIO
    TITLE "0:"
    INDEX 01 02:19:09
  TRACK 126 AUDIO
    TITLE "7:cjc115_4476"
    INDEX 01 02:19:11
  TRACK 127 AUDIO
    TITLE "0:"
    INDEX 01 02:22:06
  TRACK 128 AUDIO
    TITLE "6:cjc115_4477"
    INDEX 01 02:23:13
  TRACK 129 AUDIO
    TITLE "0:"
    INDEX 01 02:24:53
  TRACK 130 AUDIO
    TITLE "7:cjc115_4478"
    INDEX 01 02:24:59
  TRACK 131 AUDIO
    TITLE "0:"
    INDEX 01 02:27:34
  TRACK 132 AUDIO
    TITLE "6:cjc115_4479"
    INDEX 01 02:28:43
  TRACK 133 AUDIO
    TITLE "0:"
    INDEX 01 02:29:60
  TRACK 134 AUDIO
    TITLE "7:cjc115_4480"
    INDEX 01 02:29:66
  TRACK 135 AUDIO
    TITLE "0:"
    INDEX 01 02:32:55
  TRACK 136 AUDIO
    TITLE "6:cjc115_4481"
    INDEX 01 02:33:66
  TRACK 137 AUDIO
    TITLE "0:"
    INDEX 01 02:34:73
  TRACK 138 AUDIO
    TITLE "7:cjc115_4482"
    INDEX 01 02:35:02
  TRACK 139 AUDIO
    TITLE "0:"
    INDEX 01 02:37:68
  TRACK 140 AUDIO
    TITLE "6:cjc115_4483"
    INDEX 01 02:39:04
  TRACK 141 AUDIO
    TITLE "0:"
    INDEX 01 02:40:23
  TRACK 142 AUDIO
    TITLE "7:cjc115_4484"
    INDEX 01 02:40:27
  TRACK 143 AUDIO
    TITLE "0:"
    INDEX 01 02:41:52
  TRACK 144 AUDIO
    TITLE "6:cjc115_4485"
    INDEX 01 02:42:59
  TRACK 145 AUDIO
    TITLE "0:"
    INDEX 01 02:43:68
  TRACK 146 AUDIO
    TITLE "7:cjc115_4486"
    INDEX 01 02:43:74
  TRACK 147 AUDIO
    TITLE "0:"
    INDEX 01 02:45:36
  TRACK 148 AUDIO
    TITLE "6:cjc115_4487"
    INDEX 01 02:46:47
  TRACK 149 AUDIO
    TITLE "0:"
    INDEX 01 02:47:72
  TRACK 150 AUDIO
    TITLE "7:cjc115_4488"
    INDEX 01 02:48:05
  TRACK 151 AUDIO
    TITLE "0:"
    INDEX 01 02:49:28
  TRACK 152 AUDIO
    TITLE "6:cjc115_4489"
    INDEX 01 02:50:37
  TRACK 153 AUDIO
    TITLE "0:"
    INDEX 01 02:51:52
  TRACK 154 AUDIO
    TITLE "7:cjc115_4490"
    INDEX 01 02:51:58
  TRACK 155 AUDIO
    TITLE "0:"
    INDEX 01 02:54:19
  TRACK 156 AUDIO
    TITLE "6:cjc115_4491"
    INDEX 01 02:55:28
  TRACK 157 AUDIO
    TITLE "0:"
    INDEX 01 02:56:40
  TRACK 158 AUDIO
    TITLE "7:cjc115_4492"
    INDEX 01 02:56:48
  TRACK 159 AUDIO
    TITLE "0:"
    INDEX 01 02:58:50
  TRACK 160 AUDIO
    TITLE "6:cjc115_4493"
    INDEX 01 02:59:67
  TRACK 161 AUDIO
    TITLE "0:"
    INDEX 01 03:01:02
  TRACK 162 AUDIO
    TITLE "7:cjc115_4494"
    INDEX 01 03:01:13
  TRACK 163 AUDIO
    TITLE "0:"
    INDEX 01 03:03:32
  TRACK 164 AUDIO
    TITLE "6:cjc115_4495"
    INDEX 01 03:04:41
  TRACK 165 AUDIO
    TITLE "0:"
    INDEX 01 03:05:56
  TRACK 166 AUDIO
    TITLE "7:cjc115_4496"
    INDEX 01 03:05:64
  TRACK 167 AUDIO
    TITLE "0:"
    INDEX 01 03:06:67
  TRACK 168 AUDIO
    TITLE "6:cjc115_4497"
    INDEX 01 03:08:00
  TRACK 169 AUDIO
    TITLE "0:"
    INDEX 01 03:09:27
  TRACK 170 AUDIO
    TITLE "7:cjc115_4498"
    INDEX 01 03:09:33
  TRACK 171 AUDIO
    TITLE "0:"
    INDEX 01 03:10:73
  TRACK 172 AUDIO
    TITLE "6:cjc115_4499"
    INDEX 01 03:12:05
  TRACK 173 AUDIO
    TITLE "0:"
    INDEX 01 03:13:38
  TRACK 174 AUDIO
    TITLE "7:cjc115_4500"
    INDEX 01 03:13:44
  TRACK 175 AUDIO
    TITLE "0:"
    INDEX 01 03:15:47
  TRACK 176 AUDIO
    TITLE "6:cjc115_4501"
    INDEX 01 03:16:66
  TRACK 177 AUDIO
    TITLE "0:"
    INDEX 01 03:18:10
  TRACK 178 AUDIO
    TITLE "7:cjc115_4502"
    INDEX 01 03:18:16
  TRACK 179 AUDIO
    TITLE "0:"
    INDEX 01 03:20:56
  TRACK 180 AUDIO
    TITLE "6:cjc115_4503"
    INDEX 01 03:21:71
  TRACK 181 AUDIO
    TITLE "0:"
    INDEX 01 03:23:15
  TRACK 182 AUDIO
    TITLE "7:cjc115_4504"
    INDEX 01 03:23:19
  TRACK 183 AUDIO
    TITLE "0:"
    INDEX 01 03:24:44
